<svg version="1.1" id="logo" xmlns="http://www.w3.org/2000/svg" xmlns:xlink="http://www.w3.org/1999/xlink" x="0px" y="0px" width="41.7px" height="32px" viewBox="0 0 41.7 32" xml:space="preserve"><path d="M0,16.2c0-2.1,0.6-3.8,2-5.2C4.9,8,7.8,5,10.7,2.1c3.1-3,7.5-2.8,10.7,0.3c0.8,0.8,1.7,1.7,2.5,2.5c0.3,0.4,0.6,0.4,0.9,0
                    c0.8-0.9,1.7-1.7,3-1.8c1.4-0.2,2.7,0.1,3.7,1.1c3,2.9,5.9,5.8,8.8,8.8c1.7,1.7,1.6,4.4-0.1,6.1c-2.8,2.9-5.7,5.7-8.6,8.6
                    c-1.8,1.8-4.5,1.8-6.3,0c-1.1-1-1.1-1-2.1,0c-0.6,0.6-1.3,1.3-1.9,1.9c-3.1,3-7.4,3.3-10.5,0.4c-3.1-2.9-6.1-6-9.1-9.1
                    C0.5,19.5,0,17.8,0,16.2z M16,22.3c1-1,1.9-2,2.9-3c0.9-0.9,1.6-0.8,2.5,0c4.4,4.3,2.2,3.6,7-0.9c0.8-0.8,1.5-1.6,2.2-2.3
                    c-2.2-2.2-4.3-4.3-6.4-6.4c-0.9,0.9-1.9,1.8-2.9,2.8c-0.9,0.8-1.6,0.8-2.4,0c-1-1-2-1.9-2.9-2.8c-2.1,2.1-4.3,4.2-6.3,6.3
                    C11.8,18,13.9,20.1,16,22.3z M22.3,7.5c-1.1-1.1-2.1-2.1-3.2-3.2c-1.9-1.8-4.6-1.8-6.5,0C9.9,7.2,7.1,10,4.3,12.8
                    c-1.8,1.8-1.8,4.6,0,6.4c2.8,2.8,5.6,5.6,8.4,8.4c1.7,1.7,4.3,1.9,6.2,0.3c1.1-0.9,2.1-2,3.2-3c0.3-0.2,0.3-0.4,0-0.7
                    c-0.6-0.6-1.2-1.2-1.8-1.9c-1,1-2,2-3,3c-0.9,0.9-1.7,0.9-2.6,0c-2.7-2.7-5.3-5.3-8-8c-1-1-0.9-1.7,0-2.7C9.3,12,12,9.4,14.6,6.7
                    c0.9-0.9,1.7-0.9,2.6,0C20.4,9.6,19.3,10.7,22.3,7.5z M26.4,24.5c0.3,0.3,0.7,0.6,1,1c0.8,0.8,1.5,0.8,2.3,0
                    c2.8-2.8,5.5-5.5,8.3-8.3c0.8-0.8,0.8-1.5,0-2.3c-2.8-2.8-5.6-5.6-8.4-8.5c-0.9-1-2-0.3-2.8,0.5c-0.5,0.4-0.4,0.6,0,1
                    c2.2,2.2,4.4,4.4,6.6,6.6c1.1,1.1,1.1,1.8,0,2.9c-1.1,1.1-2.2,2.1-3.3,3.2C29,21.8,27.8,23.1,26.4,24.5z"></path></svg>